<svg viewBox="281.625 205.239 225.3 477.955" xmlns="http://www.w3.org/2000/svg" overflow="visible">
    <g id="Master/Character/Standing" stroke="none" stroke-width="1" fill="none" fill-rule="evenodd">
        <g id="Head" transform="translate(273.000000, 280.500000) scale(1 1)">
            <g id="Head/Hijab" stroke="none" stroke-width="1" fill="none" fill-rule="evenodd">
                <g id="Group-105" transform="translate(100.000000, 25.582688)">
                    <path d="M26.6526,46.7422 C26.9436,41.2162 33.2026,43.4832 35.1916,40.9432 C36.8386,38.8412 35.1996,34.0132 35.5706,31.8412 C38.8806,31.7152 40.4706,30.6982 40.4906,29.6732 C40.5276,27.8392 37.4146,28.1282 35.6576,25.3002 C33.8146,22.3312 37.1896,17.9252 36.2736,13.7262 C35.3886,9.6762 29.3886,4.2762 19.3396,7.2352 C6.9556,10.8812 8.8866,26.8742 9.5276,34.0482 C9.8816,38.0542 9.8466,42.6332 9.8056,46.7422" id="Fill-97" fill="#b73058"/>
                    <path d="M36.762,13.6201 C35.944,9.8701 31.501,5.8861 24.882,5.8861 C23.073,5.8861 21.158,6.1781 19.198,6.7561 C13.889,8.3181 10.526,12.2831 9.199,18.5401 L9.056,19.2111 L36.883,16.3511 L36.91,15.9311 C36.967,15.0981 36.919,14.3421 36.762,13.6201" id="Fill-99" fill="#ffea00"/>
                    <path d="M23.6506,28.3055 C20.8576,38.8945 23.4066,43.0625 27.6146,44.4785 C30.0236,45.2895 29.2086,48.0825 27.2236,48.0825 L8.5496,48.0825 C-8.4074,18.4165 7.5926,5.4165 11.6706,2.9075 C16.1536,0.1475 21.1216,0.4915 23.3166,0.8105 C26.3536,1.2505 32.6076,4.0605 36.2756,9.3105 C36.3926,10.9335 27.0436,15.4425 23.6506,28.3055 Z" id="Fill-101" fill="#c4b7af"/>
                    <path d="M16.7151,19.3901 C14.5831,28.1731 18.0581,37.7951 25.2361,43.2051 C26.6511,44.2701 29.0451,41.3861 27.6471,40.3321 C23.1411,36.9371 20.2611,32.1281 19.5061,26.5321 C19.2711,24.7921 19.2421,23.0411 19.4051,21.2931 C19.4571,20.7431 19.5321,20.1971 19.6201,19.6521 C19.6481,19.4841 19.7791,18.8701 19.6291,19.5721 C19.6421,19.5141 19.6531,19.4551 19.6681,19.3971 C20.2461,17.0151 17.1521,17.5901 16.7151,19.3901" id="Fill-103" fill="#b73058"/>
                </g>
            </g>
        </g>
        <g id="Full Body" transform="translate(198.000000, 0.000000) scale(1 1)">
            <g id="Full Body/Holding Earth 2" stroke="none" stroke-width="1" fill="none" fill-rule="evenodd">
                <g id="Group-331" transform="translate(86.000000, 208.000000)">
                    <path d="M57.4651,226.9854 C67.6681,237.3104 68.9961,243.6934 66.6901,247.6464 C59.8561,259.3534 47.3051,259.4124 46.6901,256.9384 C45.8341,253.5084 55.6331,251.8654 58.3421,249.2594 C55.5861,246.8944 49.5081,243.9064 49.0471,239.4234 C49.0471,239.4234 52.3401,238.9384 54.6231,236.6704 C56.3541,234.9494 58.7701,232.9164 57.4651,226.9854" id="Fill-317" fill="#b73058"/>
                    <path d="M56.6897,250.4131 C55.1897,252.1441 52.5847,252.6491 50.6837,252.9901 C49.6487,253.1731 45.6717,252.9981 47.2407,250.0751 C47.9067,248.8341 50.8697,248.6291 51.9627,248.3391 C52.6897,248.1471 60.6387,246.9131 60.0647,248.7261" id="Fill-319" fill="#b73058"/>
                    <path d="M152.4553,85.5938 C147.1793,92.4388 140.1243,97.1328 132.2653,99.9988 C132.2673,99.9498 132.2753,99.9048 132.2713,99.8548 C132.0723,97.1828 126.1003,94.1138 124.3343,92.1718 C121.0623,88.5708 120.1853,85.7108 119.9593,80.9158 C119.7423,76.3088 113.6463,72.4608 114.2113,67.9168 C114.7283,63.7418 121.7053,65.0708 124.7093,64.9158 C129.3813,64.6768 133.4803,64.4688 136.5213,60.6588 C137.7953,59.0638 138.5743,57.3908 140.1543,56.1048 C141.6803,54.8628 143.4863,54.1208 145.0083,52.9218 C147.1763,51.2138 148.4393,48.6168 150.3503,46.6538 C152.0353,44.9188 153.7953,44.7378 155.0213,42.7228 C155.9303,41.2318 156.7833,38.2838 159.0213,39.3548 C160.4393,40.0328 161.5693,42.0018 163.3013,42.8368 C166.1483,57.3728 162.0453,73.1528 152.4553,85.5938 M58.7413,60.7348 C57.8533,54.9478 57.8903,49.0168 58.9273,43.2738 C60.0613,44.3398 62.7563,45.2378 64.0163,45.4708 C66.9003,46.0038 69.1763,46.5278 71.8223,47.9718 C73.7383,49.0178 75.5863,50.2858 77.7093,50.9288 C82.4493,52.3648 88.1253,53.5448 91.5743,57.4218 C88.7673,58.8548 90.4983,70.2208 89.5273,73.1668 C87.9783,77.8608 83.4283,79.7838 82.2033,84.7218 C81.2233,88.6648 82.1173,93.8758 83.9043,97.4158 C83.9983,97.6008 84.1103,97.7638 84.2183,97.9318 C69.3473,90.9998 61.2303,76.9768 58.7413,60.7348 M75.2523,16.0948 C80.6923,11.8778 87.0313,8.7258 93.5673,6.4728 C96.8163,5.4328 100.0623,4.6558 103.2883,4.1428 C103.2433,4.2158 103.1903,4.2778 103.1483,4.3548 C101.4593,7.4408 98.3123,10.9878 97.4593,14.4158 C96.8553,16.8438 97.8303,18.7388 94.9593,19.6718 C92.1783,20.5758 89.2793,18.7398 86.4613,18.6668 C83.8073,18.5988 73.8533,20.9298 75.9223,15.6918 C75.6973,15.8118 75.4763,15.9598 75.2523,16.0948 M151.7813,20.4758 C151.7763,20.4758 151.7703,20.4738 151.7663,20.4738 C147.4063,20.3908 144.6973,26.2518 144.4593,29.5748 C144.2893,31.9458 143.5373,33.8218 143.2233,36.1538 C142.8963,38.5608 143.0783,40.9678 142.9593,43.4158 C142.8673,45.3198 142.6643,47.1858 141.0213,48.4898 C140.1503,49.1818 139.7443,48.4558 138.7793,49.4298 C138.2443,49.9688 137.9863,50.9688 137.7173,51.6418 C136.1273,50.0588 136.8893,46.8398 135.9653,44.8598 C134.6463,42.0328 131.9633,41.2578 129.4043,41.8608 C125.1273,42.8678 121.2443,44.0378 118.4713,47.4658 C116.4163,50.0058 117.0293,50.7448 117.4593,53.6658 C117.8093,56.0368 118.0473,57.8378 115.6843,59.1098 C110.3833,61.9608 110.4963,55.3288 109.4103,52.1598 C108.0863,48.2888 103.4553,44.9168 103.2603,40.6658 C103.0493,36.1018 107.8533,36.4988 111.0293,34.4848 C114.7563,32.1208 116.8833,27.4318 119.2033,23.8538 C121.9483,19.6168 128.1713,12.0688 129.1273,5.9948 C136.9573,8.5418 144.2613,12.9708 150.6753,19.3228 C151.0573,19.7008 151.4173,20.0898 151.7813,20.4758 M152.4403,15.8118 C136.6723,0.1948 114.7103,-3.4282 93.8513,3.2478 C76.3063,9.2948 61.7563,21.1928 56.7483,39.5788 C52.8673,53.8278 55.4383,69.7908 62.2703,82.7338 C71.3593,99.9508 91.2663,106.5758 109.7083,106.7738 C119.7183,106.8818 129.8153,104.7358 138.8173,100.3538 C148.9003,95.4468 156.2513,86.2718 161.3763,76.5248 C172.0173,56.2888 168.6423,31.8568 152.4403,15.8118" id="Fill-321" fill="#b73058"/>
                    <path d="M44.842,306.166 C45.53,326.983 44.297,349.898 45.379,370.682 C46.373,389.783 49.344,409.473 48.379,428.572 C48.002,436.029 48.455,445.749 45.852,452.547 C42.293,461.84 30.418,458.859 25.92,465.485 C37.045,466.148 47.192,465.17 56.779,460.123 L56.944,464.985 L66.666,464.985 C69.789,448.039 72.479,429.785 73.379,412.072 C74.237,395.215 75.238,378.068 76.905,361.072 C77.742,352.526 89.842,298.666 89.842,298.666 C89.842,298.666 110.983,351.406 113.879,360.547 C119.942,379.68 123.076,398.611 130.77,416.959 C134.158,425.037 137.477,433.022 140.268,441.184 C142.565,447.896 148.379,467.445 148.379,467.445 L158.803,467.445 L159.354,459.747 C164.061,469.309 181.848,472.48 190.803,472.996 C190.551,469.627 180.508,466.235 177.504,463.945 C172.815,460.367 169.619,455.75 167.393,450.557 C162.375,438.847 162.377,425.546 160.405,412.57 C157.893,396.025 154.479,379.113 151.354,362.596 C149.744,354.092 143.731,318.48 141.379,309.07 C141.379,309.07 132.825878,260.626735 120.325878,249.626735 C120.325878,249.626735 110.842,261.666 92.342,258.166 C73.842,254.666 67.842,243.666 67.842,243.666 C41.842,261.166 44.842,306.166 44.842,306.166 Z" id="Fill-323" fill="#b73058"/>
                    <path d="M190.1471,174.6095 C198.0031,172.1715 208.5681,168.4595 211.2931,159.7165 C213.0431,154.1055 209.7631,146.8755 207.7991,141.7485 C204.3911,132.8525 199.9821,124.3215 195.4831,115.9375 C192.1721,109.7675 188.7021,103.6795 185.1041,97.6725 C180.3481,89.7345 173.1061,79.2535 162.7481,84.7125 C154.9511,88.8215 157.1671,99.9835 159.0631,106.6975 C161.5831,115.6255 164.9071,124.2635 167.2601,133.2695 C167.9011,135.7235 168.177493,136.740157 168.778493,139.204157 C161.152423,142.5 152.6441,141.4335 144.8421,141.6585 C136.2281,141.9065 127.6021,141.6955 118.9911,142.0855 C91.9981,143.3055 63.6011,140.9865 39.5101,155.3475 C30.2831,160.8485 21.8971,167.7785 14.3531,175.3995 C9.1641,180.6425 3.1291,187.1485 1.1971,194.4965 C-0.4729,200.8475 3.0801,207.5645 6.5041,212.6545 C11.4191,219.9615 18.1711,226.0995 25.3321,231.1415 C33.0081,236.5455 48.2811,245.2745 56.9281,236.9935 C67.3951,226.9665 46.8202752,208.885865 40.8192752,203.034865 C46.4102752,193.884865 60.4801452,190.674497 65.7473304,190.030221 C66.0433304,208.546221 59.7001,227.5145 66.8831,245.3705 C72.9041,260.3395 98.0091,263.6425 111.2011,258.1265 C117.2481,255.5965 120.4311,251.1115 123.4761,245.5715 C127.7001,237.8855 131.2441,229.8065 134.7761,221.7875 C141.1781,207.2535 147.0741,192.5145 153.1301,177.8355 C154.0661,175.5695 150.8581,176.1785 150.1771,177.8305 C144.9491,190.5025 139.8401,203.2185 134.4211,215.8115 C131.0481,223.6485 127.5741,231.4495 123.7981,239.1005 C121.2171,244.3275 118.6141,250.7635 113.4341,253.9115 C106.1061,258.3635 95.7961,257.5565 87.8221,255.7135 C79.8091,253.8625 72.5351,249.9925 69.3571,242.0905 C65.8171,233.2935 66.7131,222.6105 67.2841,213.3755 C67.8121,204.8465 69.0411,196.3045 68.9051,187.7475 C68.8911,186.8635 68.3801,186.3785 67.4841,186.5535 C56.1621,188.7655 43.8901,192.8635 37.5521,203.2345 C37.2031,203.8045 37.1291,204.6075 37.6371,205.1025 C42.5431,209.8845 47.2831,214.8345 51.3071,220.3965 C53.6411,223.6255 56.2401,227.6555 56.3941,231.7685 C56.6831,239.5435 44.0981,236.4025 40.1491,234.9705 C31.5831,231.8655 23.9361,226.0135 17.4281,219.7575 C11.5781,214.1325 5.5891,206.8785 4.1151,198.6625 C2.7011,190.7715 10.6151,183.1455 15.4901,177.9905 C23.5961,169.4175 33.2231,161.9965 43.5111,156.2445 C55.9121,149.3105 70.0671,147.4485 84.0541,146.5115 C97.3081,145.6245 110.7181,145.4125 123.9991,145.2275 C132.6421,145.1075 141.2811,145.1585 149.9191,144.7645 C156.5531,144.4625 164.9281,144.5805 170.9341,141.2875 C171.6611,140.8865 172.4411,139.9155 172.2221,139.0185 C170.6681,132.6475 168.9981,126.2995 167.1571,120.0055 C164.8791,112.2175 161.3291,104.8045 160.4541,96.6595 C159.7381,89.9925 164.0861,84.2075 171.1861,87.2505 C176.3161,89.4485 179.7641,95.8535 182.4811,100.3875 C185.8111,105.9465 189.0031,111.5885 192.0961,117.2815 C196.1371,124.7185 199.9631,132.2855 203.3061,140.0635 C205.7541,145.7595 209.0261,152.7485 208.4431,159.1275 C207.6091,168.2705 190.0771,171.5455 183.1681,173.5565 C172.8761,176.5505 162.2561,178.6545 153.9561,185.9235 C152.4161,187.2725 153.3891,189.9495 155.2551,188.3145 C164.8081,179.9485 178.3781,178.2615 190.1471,174.6095 Z" id="Fill-325" fill="#b73058"/>
                    <path d="M159.0549,89.7334 C156.3169,86.7494 152.4629,82.1634 155.2309,77.5114 C155.9279,76.3424 156.6329,76.1844 156.6819,74.6634 C156.7209,73.4254 155.6079,72.2594 155.9529,70.9554 C156.6469,68.3234 158.8729,70.4474 160.0239,72.0604 C159.6739,70.5564 157.6779,66.8464 158.8229,65.2844 C160.3359,63.2204 162.0019,66.0784 163.0629,67.1834 C163.1099,67.3064 163.1039,67.3094 163.0449,67.1924 C162.2969,65.2044 161.7519,60.6674 163.2849,58.7824 C165.3169,56.2804 168.2349,60.0504 169.3689,61.9114 C170.5469,63.8384 171.9399,66.8404 171.5199,69.0764 C171.0319,71.6714 168.5369,72.2104 166.0239,72.4624 C167.4439,76.6034 170.8399,83.3314 169.4789,87.6944 C167.8339,92.9594 162.1639,93.1244 159.0549,89.7334" id="Fill-327" fill="#b73058"/>
                    <path d="M107.76,180.0879 C106.235,173.8129 101.004,166.4389 93.215,168.8639 C86.092,171.0829 84.508,179.2509 85.485,185.4579 C86.824,193.9959 93.453,200.5179 97.656,207.8169 C101.832,215.0669 104.062,212.0799 109.971,207.8579 C118.776,201.5669 132.912,193.3569 129.102,182.7759 C125.127,171.7399 113.184,172.2929 107.76,180.0879" id="Fill-329" fill="#ac866d"/>
                </g>
            </g>
        </g>
    </g>
</svg>
